<svg xmlns="http://www.w3.org/2000/svg" viewBox="0 0 91.39 91.39"><defs><style>.cls-1{fill:#ffeeb7;}.cls-2{fill:#fce5a7;}.cls-3{fill:#f9dc93;}.cls-4{fill:#44c5e5;}</style></defs><title>Asset 1</title><g id="Layer_2" data-name="Layer 2"><g id="OBJECTS"><path class="cls-1" d="M91.39,45.69A45.7,45.7,0,1,1,45.69,0,45.7,45.7,0,0,1,91.39,45.69Z"/><path class="cls-2" d="M32.89,20.74a8.47,8.47,0,1,1-8.47-8.48A8.47,8.47,0,0,1,32.89,20.74Z"/><path class="cls-3" d="M19.4,23a8.45,8.45,0,0,1,11.2-8,8.47,8.47,0,1,0-8.91,13.81A8.45,8.45,0,0,1,19.4,23Z"/><path class="cls-2" d="M46.6,12.26a4.46,4.46,0,1,1-4.46-4.45A4.46,4.46,0,0,1,46.6,12.26Z"/><path class="cls-3" d="M39.5,13.44A4.46,4.46,0,0,1,44,9a4.25,4.25,0,0,1,1.43.24,4.46,4.46,0,1,0-4.69,7.26A4.44,4.44,0,0,1,39.5,13.44Z"/><path class="cls-2" d="M17.25,37.34a4.74,4.74,0,1,1-3.54-5.68A4.73,4.73,0,0,1,17.25,37.34Z"/><path class="cls-3" d="M9.62,36.85a4.75,4.75,0,0,1,5.69-3.54,4.64,4.64,0,0,1,1.43.59,4.74,4.74,0,1,0-6.6,6.4A4.77,4.77,0,0,1,9.62,36.85Z"/><path class="cls-2" d="M37.49,44.84A7.28,7.28,0,1,1,32,36.1,7.28,7.28,0,0,1,37.49,44.84Z"/><path class="cls-3" d="M25.76,44.1a7.29,7.29,0,0,1,8.74-5.46,7.4,7.4,0,0,1,2.2.91,7.28,7.28,0,1,0-10.14,9.84A7.25,7.25,0,0,1,25.76,44.1Z"/><path class="cls-2" d="M50.63,31.46a5.37,5.37,0,1,1-4-6.45A5.38,5.38,0,0,1,50.63,31.46Z"/><path class="cls-3" d="M42,30.9a5.38,5.38,0,0,1,6.45-4,5.54,5.54,0,0,1,1.62.67,5.37,5.37,0,1,0-7.48,7.26A5.37,5.37,0,0,1,42,30.9Z"/><path class="cls-2" d="M19.46,57.07a5.38,5.38,0,1,1-4-6.44A5.37,5.37,0,0,1,19.46,57.07Z"/><path class="cls-3" d="M10.8,56.52a5.37,5.37,0,0,1,6.45-4,5,5,0,0,1,1.62.67,5.37,5.37,0,1,0-7.48,7.26A5.37,5.37,0,0,1,10.8,56.52Z"/><path class="cls-2" d="M62.32,83.77a3.62,3.62,0,1,1,1-5A3.63,3.63,0,0,1,62.32,83.77Z"/><path class="cls-3" d="M58.36,79.47a3.62,3.62,0,0,1,5,1,3.72,3.72,0,0,1,.48,1.08,3.62,3.62,0,0,0-5.51-3.88,3.61,3.61,0,0,0-1.52,3.93A3.59,3.59,0,0,1,58.36,79.47Z"/><path class="cls-2" d="M67.16,69.43a5.71,5.71,0,1,1-1.44-8A5.72,5.72,0,0,1,67.16,69.43Z"/><path class="cls-3" d="M58.83,65.48a5.71,5.71,0,0,1,8-1.44,5.92,5.92,0,0,1,1.34,1.3,5.71,5.71,0,1,0-10.25,4.23A5.72,5.72,0,0,1,58.83,65.48Z"/><path class="cls-2" d="M78.5,72.82a4.53,4.53,0,1,1-2.37-5.95A4.53,4.53,0,0,1,78.5,72.82Z"/><path class="cls-3" d="M71.4,71.07a4.54,4.54,0,0,1,5.95-2.38,4.86,4.86,0,0,1,1.25.8,4.53,4.53,0,1,0-7.3,4.91A4.57,4.57,0,0,1,71.4,71.07Z"/><path class="cls-2" d="M84,59.8a6.89,6.89,0,1,1-3.6-9A6.88,6.88,0,0,1,84,59.8Z"/><path class="cls-3" d="M73.25,57.13a6.89,6.89,0,0,1,9-3.61,6.74,6.74,0,0,1,1.89,1.22,6.88,6.88,0,0,0-12.8-.39,6.91,6.91,0,0,0,1.72,7.84A6.83,6.83,0,0,1,73.25,57.13Z"/><path class="cls-4" d="M89.24,45.69A43.55,43.55,0,1,1,45.69,2.15,43.55,43.55,0,0,1,89.24,45.69Z"/></g></g></svg>