<svg xmlns="http://www.w3.org/2000/svg" viewBox="0 0 38.37 38.37"><defs><style>.cls-1{fill:#d6a477;}.cls-2{fill:#c2966c;}</style></defs><title>Asset 1</title><g id="Layer_2" data-name="Layer 2"><g id="planets"><path class="cls-1" d="M38.37,19.18A19.19,19.19,0,1,1,19.18,0,19.19,19.19,0,0,1,38.37,19.18Z"/><path class="cls-2" d="M14.93,13.32c9.3,0,7.43-7.93,13.21-11.09a19.11,19.11,0,0,0-23,4C6.19,9.26,7.69,13.32,14.93,13.32Zm22.62.34C26.41,15.54,38.72,22.05,30.72,26c-8.62,4.29-19.92-3.27-18.16-6.47,1.52-2.76-5.26-4-12.47-2.15C0,18,0,18.59,0,19.18a17.62,17.62,0,0,0,.1,1.94c9.06-.75,13.41,1.14,2.37,7.46a19.47,19.47,0,0,0,3.32,4.33c3.43-2,9.38-2.52,23.76,2.4a19.12,19.12,0,0,0,8-21.65Z"/></g></g></svg>