<svg xmlns="http://www.w3.org/2000/svg" viewBox="0 0 92.01 91.39"><defs><style>.cls-1{fill:#ffeeb7;}.cls-2{fill:#fce5a7;}.cls-3{fill:#f9dc93;}.cls-4{fill:#44c5e5;}</style></defs><title>Asset 3</title><g id="Layer_2" data-name="Layer 2"><g id="OBJECTS"><path class="cls-1" d="M92,45.69A45.7,45.7,0,1,1,46.32,0,45.69,45.69,0,0,1,92,45.69Z"/><path class="cls-2" d="M33.52,20.74a8.48,8.48,0,1,1-8.47-8.48A8.47,8.47,0,0,1,33.52,20.74Z"/><path class="cls-3" d="M20,23a8.46,8.46,0,0,1,11.21-8,8.47,8.47,0,1,0-8.92,13.81A8.45,8.45,0,0,1,20,23Z"/><path class="cls-2" d="M47.22,12.26a4.46,4.46,0,1,1-4.45-4.45A4.45,4.45,0,0,1,47.22,12.26Z"/><path class="cls-3" d="M40.12,13.44A4.46,4.46,0,0,1,44.58,9,4.31,4.31,0,0,1,46,9.22a4.46,4.46,0,1,0-4.69,7.26A4.4,4.4,0,0,1,40.12,13.44Z"/><path class="cls-2" d="M17.88,37.34a4.74,4.74,0,1,1-3.55-5.68A4.74,4.74,0,0,1,17.88,37.34Z"/><path class="cls-3" d="M10.25,36.86a4.73,4.73,0,0,1,5.68-3.55,4.64,4.64,0,0,1,1.43.59,4.73,4.73,0,1,0-6.59,6.4A4.7,4.7,0,0,1,10.25,36.86Z"/><path class="cls-2" d="M38.12,44.84a7.28,7.28,0,1,1-5.46-8.74A7.29,7.29,0,0,1,38.12,44.84Z"/><path class="cls-3" d="M26.39,44.1a7.28,7.28,0,0,1,8.73-5.46,7.4,7.4,0,0,1,2.2.91,7.28,7.28,0,1,0-10.14,9.84A7.24,7.24,0,0,1,26.39,44.1Z"/><path class="cls-2" d="M51.25,31.46a5.37,5.37,0,1,1-4-6.45A5.37,5.37,0,0,1,51.25,31.46Z"/><path class="cls-3" d="M42.59,30.9a5.38,5.38,0,0,1,6.45-4,5.6,5.6,0,0,1,1.63.67,5.38,5.38,0,1,0-7.49,7.26A5.37,5.37,0,0,1,42.59,30.9Z"/><path class="cls-2" d="M20.08,57.07a5.37,5.37,0,1,1-4-6.44A5.37,5.37,0,0,1,20.08,57.07Z"/><path class="cls-3" d="M11.42,56.52a5.38,5.38,0,0,1,6.45-4,5,5,0,0,1,1.62.67A5.37,5.37,0,1,0,12,60.43,5.37,5.37,0,0,1,11.42,56.52Z"/><path class="cls-2" d="M63,83.77a3.63,3.63,0,1,1,1-5A3.64,3.64,0,0,1,63,83.77Z"/><path class="cls-3" d="M59,79.47a3.61,3.61,0,0,1,5,1,3.47,3.47,0,0,1,.48,1.08,3.62,3.62,0,1,0-7,0A3.61,3.61,0,0,1,59,79.47Z"/><path class="cls-2" d="M67.78,69.43a5.71,5.71,0,1,1-1.43-8A5.71,5.71,0,0,1,67.78,69.43Z"/><path class="cls-3" d="M59.45,65.48a5.71,5.71,0,0,1,9.29-.14A5.71,5.71,0,1,0,58.5,69.57,5.66,5.66,0,0,1,59.45,65.48Z"/><path class="cls-2" d="M79.13,72.82a4.53,4.53,0,1,1-2.38-5.95A4.54,4.54,0,0,1,79.13,72.82Z"/><path class="cls-3" d="M72,71.07a4.53,4.53,0,0,1,6-2.38,4.8,4.8,0,0,1,1.24.8,4.53,4.53,0,0,0-8.42-.25,4.56,4.56,0,0,0,1.13,5.16A4.47,4.47,0,0,1,72,71.07Z"/><path class="cls-2" d="M84.67,59.8a6.89,6.89,0,1,1-3.61-9A6.89,6.89,0,0,1,84.67,59.8Z"/><path class="cls-3" d="M73.88,57.13a6.89,6.89,0,0,1,9-3.61,6.8,6.8,0,0,1,1.9,1.22,6.89,6.89,0,1,0-11.09,7.45A6.83,6.83,0,0,1,73.88,57.13Z"/><path class="cls-4" d="M34.4,1.41A45.7,45.7,0,0,0,0,45.69C0,67,15.25,85.58,35,90.61c19.77-5,34.4-23.58,34.4-44.92S54.18,6.43,34.4,1.41Z"/></g></g></svg>