<svg xmlns="http://www.w3.org/2000/svg" viewBox="0 0 55.52 55.52"><defs><style>.cls-1{fill:#dd8328;}.cls-2{fill:#c07221;}</style></defs><title>Asset 2</title><g id="Layer_2" data-name="Layer 2"><g id="planets"><path class="cls-1" d="M55.52,27.76A27.76,27.76,0,1,1,27.76,0,27.76,27.76,0,0,1,55.52,27.76Z"/><path class="cls-2" d="M34.65,8.19A3.64,3.64,0,0,0,31,4.55H12.53A28.08,28.08,0,0,0,5,11.83H31A3.64,3.64,0,0,0,34.65,8.19Zm-10.47,10a3.64,3.64,0,0,0,3.64,3.64H54.88a27.31,27.31,0,0,0-2.7-7.28H27.82A3.64,3.64,0,0,0,24.18,18.2ZM16.67,45.28a3.64,3.64,0,0,0,3.64,3.64H45.72a28,28,0,0,0,6.08-7.28H20.31A3.64,3.64,0,0,0,16.67,45.28ZM37.54,31.4a3.64,3.64,0,0,0-3.64-3.64h-25a3.64,3.64,0,0,0,0,7.28h25A3.64,3.64,0,0,0,37.54,31.4Z"/></g></g></svg>