<svg xmlns="http://www.w3.org/2000/svg" viewBox="0 0 73.75 73.75"><defs><style>.cls-1{fill:#6dcff6;}.cls-2{fill:#8dc63f;}.cls-3{fill:#fff;}</style></defs><title>Asset 3</title><g id="Layer_2" data-name="Layer 2"><g id="planets"><path class="cls-1" d="M73.75,36.88A36.88,36.88,0,1,1,36.88,0,36.87,36.87,0,0,1,73.75,36.88Z"/><path class="cls-2" d="M29.27,10c.09,0,.24-.16.35-.19s.22,0,.36-.14a2.41,2.41,0,0,0,.36-.48c.11-.17.36-.27.39-.47s-.23-.43-.37-.57a2.44,2.44,0,0,0-.59-.42,1.68,1.68,0,0,0-.36-.08c-.11,0-.12-.11-.23-.13s-.48-.06-.72-.11a3.53,3.53,0,0,1-.56-.14,1,1,0,0,1-.51-1c0-.32,0-.41.22-.63a7.61,7.61,0,0,1,.62-.45A2.83,2.83,0,0,1,29,4.88c.27-.08.57-.19.84-.24a7.06,7.06,0,0,1,.92,0,1.43,1.43,0,0,0,.36,0,.51.51,0,0,1,.24-.1h.24c.11,0,.12-.1.22-.16a1.74,1.74,0,0,1,.45-.11l1-.21c.15,0,.29-.11.44-.13a1.41,1.41,0,0,1,.45.11,7.37,7.37,0,0,0,1.33,0c.49,0,1.38.06,1.7.47a1.14,1.14,0,0,1,.09.73c-.07.24-.3.24-.49.34-.37.21-.86.61-.62,1.08a1,1,0,0,0,.5.38,2.6,2.6,0,0,0,1.1.21h3.07a3.86,3.86,0,0,1,1,0c.2.07.35.43.47.61a1.14,1.14,0,0,0,.46.44,11.62,11.62,0,0,0,2.13.41c.11.44,0,.91.58.93.25,0,.56.06.75-.12a1.48,1.48,0,0,0,.21-.27c0-.07,0-.14,0-.21l.19-.23c.18-.43-.18-1.06.14-1.43.12-.15.27-.16.45-.27a2.12,2.12,0,0,1,.65-.3,3.08,3.08,0,0,1,.68,0,2.86,2.86,0,0,0,.72-.13,4.24,4.24,0,0,1,.71,0c.18,0,.71-.08.81-.23s0-.66-.22-.84a8.19,8.19,0,0,1-.72-.84,2.6,2.6,0,0,0-1.42-1,5.3,5.3,0,0,0-1-.27c-.27,0-.75.12-1,0s.21-.61.4-.73a2.78,2.78,0,0,1,1.26-.48,5.67,5.67,0,0,0,1.07-.17,36.86,36.86,0,0,0-35.24,6,1,1,0,0,1,.54.39,8.41,8.41,0,0,1,.5,1.43c.08.19.11.38.2.59a1.06,1.06,0,0,0,.63.5,5.44,5.44,0,0,0,2,.09,1.16,1.16,0,0,0,.62-.09,1.37,1.37,0,0,1,.69-.15,1.94,1.94,0,0,0,.59-.12l.36-.09c.14,0,.32,0,.45,0s.23-.26.38-.33.2-.05.27-.09.17-.13.27-.18a6.44,6.44,0,0,1,.65-.3,8.15,8.15,0,0,1,.83-.17,7,7,0,0,1,1.78-.09,4.22,4.22,0,0,1,.71,0c.29.06.45.35.71.46a4.48,4.48,0,0,0,1.58.26A6.15,6.15,0,0,0,29.27,10ZM15.37,36.84c0-.12-.12-.17-.18-.27s-.12-.24-.17-.29c-.18-.2-.48-.2-.7-.27s-.34-.17-.5-.21a5,5,0,0,1-1.13-.53c-.38-.2-.88-.26-1.19-.6s-.28-.84-.71-1.16c-.15-.11-.09,0-.27-.11l-.26-.09a1.17,1.17,0,0,0-.69.06,6.09,6.09,0,0,1-.71.27c-.11,0-.22,0-.33,0s-.2.11-.38.1a2.68,2.68,0,0,1-.72-.25c-.23-.08-.37-.08-.51-.35s-.24-.87-.58-1-.83.11-1.08.29a1,1,0,0,1-.44.27c-.29.09-.39,0-.63-.2a1.92,1.92,0,0,0-.56-.36c-.21-.07-.51.08-.6-.14a2.49,2.49,0,0,1,0-.72v-.83a3.38,3.38,0,0,1,0-.71c.07-.3.35-.4.6-.51a1.27,1.27,0,0,1,.72-.09c.22,0,.11,0,.24.12s.1.15.23.24a2.13,2.13,0,0,0,.5.21c.08,0,.24,0,.31,0s.11.23.17.32.28.34.42.24,0-.69,0-.79L6,29.45c0-.06,0-.12,0-.19-.92-.07-.87-1.56-.31-2a3.59,3.59,0,0,1,.69-.3,2,2,0,0,1,.71-.21,1.45,1.45,0,0,0,.36,0c.11,0,.12-.11.23-.13.3-.07.39.05.62-.2a1.35,1.35,0,0,1,.42-.3,4.67,4.67,0,0,0,.51-.23c.36-.24.31-1.12.21-1.52a5.37,5.37,0,0,1-.22-.59,5.77,5.77,0,0,1,0-.72,4.22,4.22,0,0,0,0-.71c-.06-.23-.3-.34-.4-.57-.19-.45.06-.75.16-1.21S8.88,19.52,9,19a4.44,4.44,0,0,0,.21-.71c0-.33-.05-.29-.27-.44s-.21-.28-.21-.51a1.41,1.41,0,0,0-.12-.71,2.21,2.21,0,0,0-.83-1.22L7.18,15A36.85,36.85,0,0,0,5.86,56.81a2.07,2.07,0,0,0,.39-1.41,12.88,12.88,0,0,1,.09-3.11,5.77,5.77,0,0,0,0-.72,1.57,1.57,0,0,1,.21-.5,14.11,14.11,0,0,1,.89-1.15,2.27,2.27,0,0,0,.24-.69,4.4,4.4,0,0,0,.21-.5,4.19,4.19,0,0,1,.23-.84.9.9,0,0,1,.22-.36c.16-.14.16-.07.38-.11a2.7,2.7,0,0,0,1-.36c.09-.07.16-.18.25-.24s.23-.08.3-.14.25-.39.5-.54.31-.33.5-.48a8.17,8.17,0,0,0,.69-.51,1.27,1.27,0,0,1,.57-.25c.15-.06.33-.18.5-.24a2.58,2.58,0,0,1,.35-.09,1.94,1.94,0,0,0,.48-.28,1.13,1.13,0,0,0,.71-1,8.92,8.92,0,0,1,0-1.55c.08-.48.25-.94.36-1.42a6.72,6.72,0,0,1,.36-1.3,3.42,3.42,0,0,0,.12-1.43A2.46,2.46,0,0,0,15.37,36.84ZM72.6,27.71a3.52,3.52,0,0,1-.81.23,4.62,4.62,0,0,1-.91,0,1.67,1.67,0,0,1-1.1-.59c-.15-.22-.16-.34-.44-.36s-.52.32-.63.62a3.71,3.71,0,0,0-.08.81,3.47,3.47,0,0,0-.13.74,4,4,0,0,0,0,.92c.07.28.23.55.3.83a8,8,0,0,1,0,1.9,6.66,6.66,0,0,0,0,1.67,4.43,4.43,0,0,0,.3.62,2.9,2.9,0,0,1,.24.68c0,.12.08.23.11.35a4.23,4.23,0,0,1-.41-.23c-.32-.2-.31-.23-.41-.56a4.21,4.21,0,0,0-.33-.63c-.16-.35-.38-.37-.71-.56s-.24-.32-.24-.62a1.39,1.39,0,0,1,.15-.81c.1-.16.22-.36.33-.5a2.32,2.32,0,0,0,.59-1.33,1.11,1.11,0,0,0-.26-.93c-.23-.24-.57-.33-.78-.6s-.15-.89-.15-1.3.16-1.19-.23-1.52c-.21-.18-.57-.08-.7-.38a1.93,1.93,0,0,1,0-.72c.06-.48.62-.6,1-.44s.6.57,1.09.56a3.93,3.93,0,0,1,.84,0c.11,0,.12.11.23.13s.25,0,.36,0,.37.27.59.34a2.82,2.82,0,0,0,.71,0c.27,0,.59,0,.91,0a37,37,0,0,0-9.52-15.58,4.26,4.26,0,0,1-.68.1c-.17,0-.31.1-.48.13s-.3,0-.45,0a2.91,2.91,0,0,0-.82.21,1.83,1.83,0,0,1-.83.15c-.58,0-1.08.12-1.67.12a3.6,3.6,0,0,0-1.4.14,1.32,1.32,0,0,1-.62.22,5,5,0,0,1-.87,0,1.24,1.24,0,0,0-.2-.1l-.24,0c-.17,0-.22-.11-.33-.25a5.6,5.6,0,0,1-.41-.72c-.26-.49-.74-.47-1.25-.47H50.8a2,2,0,0,0-.72.12,2.28,2.28,0,0,1-.59.11.76.76,0,0,0-.71,1c0,.22.17.36.12.59a2.54,2.54,0,0,1-.24.72c-.27.53-1,0-1.37-.21A1.09,1.09,0,0,0,46,12.21c-.27.15-.34.44-.56.61,0,0-.22.08-.27.11a2.41,2.41,0,0,1-.33.15,13.26,13.26,0,0,0-1.33.56c-.35.18-.34.26-.33.63a3.38,3.38,0,0,0,0,.71c.08.39.3.54.67.45a1.15,1.15,0,0,1,.28-.09,2.16,2.16,0,0,1,.36,0,2.77,2.77,0,0,1,1.55.47.67.67,0,0,1,.36.6c0,.12,0,.49-.15.57s-.24-.06-.36-.07a.5.5,0,0,0-.33.06,2.14,2.14,0,0,0-.57.27c-.19.16-.18.39-.28.6s-.37.26-.58.35a1.63,1.63,0,0,1-.71.12,1.46,1.46,0,0,0-.36,0c-.14.06-.07.09-.14.22a3.91,3.91,0,0,1-.3.41c-.12.16-.1.34-.26.45s-.32.15-.45.24-.06.13-.27.12-.38-.19-.5-.33-.21-.83-.59-1a1.73,1.73,0,0,0-.66.25,1,1,0,0,0-.36.45,3.94,3.94,0,0,0,0,.69,1,1,0,0,0-.09.26c-.08.13-.13.12-.25.23s-.39.52-.59.75-.33.29-.36.44c-.08.38.49.75.75.92s.44.51.8.51a2.93,2.93,0,0,1,.72.12c.41.12.53.45.79.75a3,3,0,0,0,1,.8,3.55,3.55,0,0,0,1.31.11,1.78,1.78,0,0,0,1.28-.26c.22-.22.11-.25.06-.48a.75.75,0,0,1,.06-.59c.09-.2.13-.16.27-.32s.06-.26.13-.34.5-.23.7-.38a2.13,2.13,0,0,1,.74-.36,2.57,2.57,0,0,1,.83-.12,1.11,1.11,0,0,1,.57.12c.15.11.09,0,.12.24a5.61,5.61,0,0,0,0,.71c.1.43.81.58,1.17.61.06.23,0,.32-.07.49s0,.36,0,.54c-.12.4-.56.43-.79.74-.09.13,0,.15-.13.27a.91.91,0,0,0-.22.11c-.14.11-.2.27-.35.37a2.17,2.17,0,0,1-1.11.09c-.09,0-.13-.09-.22-.13a.33.33,0,0,1-.22,0c-.16-.1-.16-.34-.29-.44s-.91,0-1.16,0a3.19,3.19,0,0,1-1-.15,3.8,3.8,0,0,1-.5-.24c-.21-.09-.4-.09-.6-.18-.39-.17-.79-.18-1.19-.35-.17-.08-.35-.15-.51-.24a.58.58,0,0,0-.44-.15,3.88,3.88,0,0,0-.59,0c-.18,0-.35.18-.5.22a9.11,9.11,0,0,1-1.17.14c-.18,0-.29.09-.47.12a1.92,1.92,0,0,0-.57.15.9.9,0,0,0-.26.32.9.9,0,0,1-.36.45,1.86,1.86,0,0,0-.46.51c-.07.19,0,.3-.16.45a3.76,3.76,0,0,1-.57.23A2.58,2.58,0,0,1,35,27a6.5,6.5,0,0,1-.73.08c-.13,0-.22.11-.35.14s-.24,0-.36,0a3.47,3.47,0,0,0-.41.16c-.3.09-.61.14-.9.23-.1,0-.17.16-.26.19s-.21,0-.33,0a3,3,0,0,0-.83.39c-.28.14-.27.19-.35.44s-.27.47-.34.72-.08.47-.17.71-.15.36-.21.57a1.12,1.12,0,0,1-.15.38,3.52,3.52,0,0,1-.44.69,4.12,4.12,0,0,1-1.31.77c-.57.25-1.36.12-1.64.83a3.63,3.63,0,0,0,.09,1.76,1.54,1.54,0,0,0,.74,1.15c.47.26.94.41,1.14,1a7.93,7.93,0,0,1,.23,1.16c.1.49.18,1,.3,1.46.19.76.26,2,1.07,2.41a5.13,5.13,0,0,0,2.14.44h.92c.34,0,.63.13,1,.12a3.26,3.26,0,0,1,2.08.83,9.93,9.93,0,0,1,.86.72c.25.24.35.59.56.82.14-.25,1-.11,1.2-.11a1.7,1.7,0,0,1,.74.09c.23.1.17.09.35.27a4.39,4.39,0,0,1,.72.71.93.93,0,0,1,.11.59,3.76,3.76,0,0,0,.13.48,4.24,4.24,0,0,1-.13,1.07,2.81,2.81,0,0,1-.26,1.09,2.77,2.77,0,0,0-.33,1.28,4.34,4.34,0,0,0,0,.72c0,.13.14.18.15.33.44,0,.33.42.33.73a1.24,1.24,0,0,1-.26.84c-.33.48-.4,1-.71,1.54a1.22,1.22,0,0,0-.21.83v.84a7.38,7.38,0,0,0,0,1.63c.07.25.29.5.34.77a2.71,2.71,0,0,1-.1,1,2.09,2.09,0,0,1-1.1,1.42,4,4,0,0,1-.38.24c-.1,0-.2,0-.3,0A2.4,2.4,0,0,0,37,62c-.16.17-.15.3-.23.49s-.19.19-.23.35.15.44.15.69c.23,0,.29,0,.43.2s.07.22.17.28a.3.3,0,0,0,.21,0c.16.07.14.13.27.23a.78.78,0,0,0,.21,0c.17.09.31.21.48.31A3.06,3.06,0,0,0,39.6,65a6.87,6.87,0,0,0,1.81.25c.31,0,.61-.09.92-.12a5.36,5.36,0,0,0,1-.22c.27-.07.56-.1.81-.17a2.9,2.9,0,0,0,.29-.19c.45-.18.84-.43,1.27-.65A2.61,2.61,0,0,1,47,63.69c.44,0,.89,0,1.33,0a1.48,1.48,0,0,0,1-.58c.12-.13.28-.17.42-.29a3.91,3.91,0,0,0,.37-.44c.25-.27.44-.62.69-.87a4.87,4.87,0,0,1,.95-.59,2.14,2.14,0,0,1,.51-.3c.15,0,.29,0,.44-.05l.27-.09a.26.26,0,0,0,.21,0c.06,0,.18-.08.26-.09a.5.5,0,0,0,.24,0A9.94,9.94,0,0,1,54.7,60c0-.26.21-.46.26-.69a1.42,1.42,0,0,0-.09-.84c-.08-.17-.13-.15-.15-.35a2.16,2.16,0,0,1,0-.36,2.52,2.52,0,0,1,.21-.71,3.75,3.75,0,0,0,0-.47,3.11,3.11,0,0,0,.1-.46,1.28,1.28,0,0,1,.26-.61,2.68,2.68,0,0,0,.3-.72c.06-.18.11-.62.39-.59l-.12-.48s0-.06,0-.09c.37,0,.57-.46.93-.5a7.88,7.88,0,0,1,1.19,0,4.13,4.13,0,0,0,1.19-.24c.22-.08.22,0,.37-.23A2.55,2.55,0,0,0,60.1,52a6.3,6.3,0,0,1,.56-1.46,7.44,7.44,0,0,1,.83-.94c.46-.42.89-.87,1.34-1.28a8.46,8.46,0,0,1,.68-.54c.24-.16.5-.26.72-.44a7,7,0,0,1,.72-.57c.27-.18.2-.14.08-.38s-.13-.42-.32-.49-.26,0-.37,0a.17.17,0,0,1-.14-.1,2.05,2.05,0,0,1-.84-.47,3.26,3.26,0,0,0-.92-.77,1.69,1.69,0,0,1-.72-.8c-.1-.4.08-.79-.11-1.2a1,1,0,0,1-.12-.47,3.24,3.24,0,0,0-.12-.62,3.08,3.08,0,0,0-.08-.68l-.37-.84a2.08,2.08,0,0,0-.26-.59,2,2,0,0,1-.24-.35,7.73,7.73,0,0,1-.23-1,8.61,8.61,0,0,1-.36-1.79,4.49,4.49,0,0,1,.12-.83,4,4,0,0,1,0-.49,1.45,1.45,0,0,1,.09-.25c0-.16-.08-.68.14-.7s.15.17.21.25.17.13.24.23a6.56,6.56,0,0,1,.71,1.22,9.18,9.18,0,0,1,.42,1.64,3.84,3.84,0,0,1,.21,1,2,2,0,0,0,.14.71c.19.52.78.87.81,1.43,0,1.06,0,2.14,0,3.2,0,.37,0,.48.2.74a2.32,2.32,0,0,0,.5.49c.2.1.41.14.6.23s.46.28.72.21a2.06,2.06,0,0,0,.35-.12c.12,0,.25-.07.37-.12l.58-.27a3.41,3.41,0,0,1,1.4-.32,8,8,0,0,1,1,0,2.9,2.9,0,0,0,.6.12,6,6,0,0,0,1.4,0,3.21,3.21,0,0,1,.29-.76,6.34,6.34,0,0,1,.23-.74,4.13,4.13,0,0,0,.69-1.9v-.46A2.85,2.85,0,0,0,72.9,41c.2,0,.41,0,.61,0a37.54,37.54,0,0,0,.24-4.13A36.92,36.92,0,0,0,72.6,27.71Z"/><path class="cls-3" d="M48.75,10.83c.11.28.14.21.36.38a2.44,2.44,0,0,0,.62.33c.24.09.48.1.71.2l.72.3c.26.12.46.22.71.36s.49.19.57.47a.66.66,0,0,1-.06.6c-.11.11-.14,0-.27.09l-.27.09c-.11,0-.21,0-.33,0a1.09,1.09,0,0,0-.26.1c-.3.08-.41,0-.45.38s0,.35.23.5.37.35.57.49a2.63,2.63,0,0,0,.63.23c.94.3,2,.24,3,.59a3.85,3.85,0,0,1,.71.48,5.8,5.8,0,0,0,.59.36c.31.13.32,0,.59,0,.12,0,.25,0,.37,0s.14-.09.22-.13c.41-.18.92-.18,1.23-.56.12-.13.13-.35.23-.48s.33-.14.56-.14h2.74a2.86,2.86,0,0,0,.72-.13c.15,0,.32,0,.47,0s.23-.09.36-.12a2.8,2.8,0,0,0,.72-.21,3.52,3.52,0,0,1,.58-.3,6.19,6.19,0,0,0,.6-.23l.22-.07A37.19,37.19,0,0,0,54.76,4.63l-.85,0a2.52,2.52,0,0,0-.73.09,8,8,0,0,1-1,0c-.22,0-.38.12-.59.13a1.42,1.42,0,0,0-.46,0,2.68,2.68,0,0,0-.58.36.86.86,0,0,0-.33,1.25,5.29,5.29,0,0,0,.41.41c.15.17.11.34.26.48s.46.17.63.29.21.28.21.51.1.68-.11.81-.24,0-.34.05-.17.07-.26.09c-.47.1-1,.24-1.4.38a2.83,2.83,0,0,1-.39.19c-.12,0-.22,0-.35,0s-.44.2-.36.49A6.06,6.06,0,0,0,48.75,10.83Zm-40.6,5a1.94,1.94,0,0,1,.58.17,1.26,1.26,0,0,0,.45.22c.18,0,.34,0,.51,0a2.88,2.88,0,0,0,.92.22,10.09,10.09,0,0,1,1.1,0c.26,0,.45.11.71.12h.8c.57,0,1.13,0,1.7,0a4.49,4.49,0,0,0,.83-.13,4.36,4.36,0,0,0,.71-.11c.5-.18.95-.49,1.42-.71s1.24-.65.73-1.17A2.94,2.94,0,0,0,17.8,14a2.94,2.94,0,0,0-.74-.21,11.37,11.37,0,0,0-1.43,0,1.16,1.16,0,0,1-.62-.08A.58.58,0,0,1,14.7,13c.13-.32.67-.33,1-.35a7.16,7.16,0,0,1,.93-.12h1.68c.34,0,.6-.11.93-.12s.47,0,.71,0,.46-.11.71-.12a5.88,5.88,0,0,0,.95-.11,5.38,5.38,0,0,0,.71-.24c.18-.08.19-.14.34-.25s.18-.07.26-.13c.25-.19.81-.82.49-1.09-.15-.12-.3,0-.46-.08l-.51-.12c-.28-.07-.55-.08-.83-.15s-1.05-.13-1.19-.56c-.2-.62.74-.66.93-1.1.38-.86-.71-.64-1-1.07-.09-.12,0-.52,0-.68a3,3,0,0,0,0-.84c-.1-.29-.47-.49-.71-.65a7.72,7.72,0,0,0-.75-.43A37,37,0,0,0,6.87,15.45a2.27,2.27,0,0,1,.45,0C7.59,15.55,7.87,15.72,8.15,15.79ZM71.8,46a9.89,9.89,0,0,1-1.63-.26,4.27,4.27,0,0,0-1.67-.07,6.47,6.47,0,0,0-.84.3,4.1,4.1,0,0,1-1.09.3c-1.43.25-2.86.66-4.28,1-.27.07-.53.17-.8.24s-.47.06-.7.12a7.74,7.74,0,0,0-.84.14,5.17,5.17,0,0,0-.83.38,1.09,1.09,0,0,0-.48.69.52.52,0,0,0,.24.63,5.21,5.21,0,0,0,1.54.65c.47.15,1.1.32.82,1-.12.28-.69.41-.94.51a8.32,8.32,0,0,1-.94.2,2.85,2.85,0,0,1-.72.12,3.93,3.93,0,0,0-.84,0,2.49,2.49,0,0,1-.47.12,3.89,3.89,0,0,0-.59,0,10.89,10.89,0,0,0-2.15.53c-.55.27-.93.54-.94,1.22a.9.9,0,0,1-.57.93,2.93,2.93,0,0,1-1.18.5,7.88,7.88,0,0,0-1.1.11,3.76,3.76,0,0,1-.48.13h-.59a2.35,2.35,0,0,0-.83.2,2,2,0,0,0-1,.87c-.13.3.18.54.34.71A3.39,3.39,0,0,0,49,58c.21.13.26.07.48.11s.18.11.35.13.9.09,1.07-.12l.83.12A2.91,2.91,0,0,1,53,58.11h1.89a11.55,11.55,0,0,1,2.43.15,1.65,1.65,0,0,0,.41.09h.6a4.15,4.15,0,0,0,1.06-.12,2.81,2.81,0,0,1,.48-.12c.24,0,.5,0,.74,0,.55-.06,1.08-.21,1.61-.26a1,1,0,0,1,.29-.55.85.85,0,0,0,.21-.63,3.67,3.67,0,0,1,.09-1.45c.1-.2.16-.23.38-.33a1.61,1.61,0,0,1,.72-.12h2.26a3.88,3.88,0,0,1,.83.13,8.28,8.28,0,0,0,1.66.11L69,55a36.14,36.14,0,0,0,3.65-9ZM37.11,26.36a3.2,3.2,0,0,0-1-.21H34.37c-.36,0-.67-.11-1-.12H30.57a2.49,2.49,0,0,1-1.39-.24c-.38-.22-.25-.77-.24-1.18,0-.63-.48-.57-1-.69-.3-.08-.63,0-.93,0a3.85,3.85,0,0,0-1-.12,2.09,2.09,0,0,1-1.1-.33,1,1,0,0,1-.47-.51,2.14,2.14,0,0,1-.31-.71c0-.12,0-.24-.05-.36s-.15-.23-.19-.35c-.1-.36-.07-.46-.38-.71s-.35-.41-.59-.48l-.71-.24a6.52,6.52,0,0,0-.72-.21,3.28,3.28,0,0,0-.83,0c-.11,0-.25,0-.36,0s-.18.08-.26.1c-.34.07-1.22.11-1.38.5a2.11,2.11,0,0,0,0,.83.76.76,0,0,0,.36.35c.2.12.58.28.7.5s-.06.6-.22.81a7.07,7.07,0,0,1-.44.63c-.18.19-.15.3-.15.56a5.71,5.71,0,0,0,0,1.43c.06.17.27.31.39.44s.12.14.18.18.15,0,.27.09a4.8,4.8,0,0,0,1.31.48,7.87,7.87,0,0,1,1.54.09c.49.12.92.1.84.74s-.53.56-1.08.59c-.25,0-.45.11-.71.12s-.63,0-1,0a5.61,5.61,0,0,0-.82,0c-.14,0-.24.11-.38.13s-.3,0-.46,0a1.12,1.12,0,0,1-.38.1c-.15,0-.32,0-.47,0a5.45,5.45,0,0,1-.81.12h-.83l0,.1a4.08,4.08,0,0,1-1,0c-.15,0-.32,0-.47,0a2.62,2.62,0,0,0-.48.13c-.34.07-.72-.07-1.07,0a2.74,2.74,0,0,0-.92.33c-.27.18-.4.39,0,.62a2.8,2.8,0,0,0,.48.31,3.26,3.26,0,0,0,.45,0,1.63,1.63,0,0,0,.38.09h1.42a3.11,3.11,0,0,0,.61,0c.12,0,.22-.1.35-.13a5.36,5.36,0,0,1,.8,0h2.24a3.4,3.4,0,0,1,1.59.39c.41.2,1.11.34,1,.92-.08.28-.37.39-.6.5a2.32,2.32,0,0,0-.62.44A1.64,1.64,0,0,0,20,33.87,1.7,1.7,0,0,0,21,35.44a9.5,9.5,0,0,0,1.81,1.14,2.61,2.61,0,0,0,.92.15,8.09,8.09,0,0,1,.86-.12,5.16,5.16,0,0,0,1.76-.39A3,3,0,0,1,27,36a5.89,5.89,0,0,1,.84,0,5.61,5.61,0,0,1,.71,0,1.32,1.32,0,0,1,.56.27,7.12,7.12,0,0,0,.74.35c.35.16.2.25.5,0s.48-.2.69-.35a4,4,0,0,0,.5-.51,5.24,5.24,0,0,0,.6-.56c.15-.2.27-.42.41-.62.41-.6.44-1.4.86-2a1.62,1.62,0,0,1,.6-.43,5.19,5.19,0,0,0,.62-.42,2.55,2.55,0,0,0,.33-.17c.12-.09.14-.22.23-.33s.43-.22.37-.6-.27-.41-.59-.49-.54-.18-.82-.25a2.24,2.24,0,0,1-.69-.23c-.51-.43.21-.87.55-1s.68-.3,1-.42.57-.13.87-.21a4.41,4.41,0,0,0,.94-.38,2.58,2.58,0,0,0,.49-.36c.12-.15.08-.15.1-.32C37.56,26.58,37.46,26.46,37.11,26.36ZM25.76,53.09A2.21,2.21,0,0,0,25,53a8.14,8.14,0,0,1-1.4,0,1.36,1.36,0,0,0-.35-.09,2.48,2.48,0,0,1-.39,0c-.31-.09-.63-.16-.95-.22s-.48,0-.71,0a5.39,5.39,0,0,0-1.07-.09c-.43,0-.86,0-1.29,0a1.29,1.29,0,0,1-.58-.27,2.79,2.79,0,0,0-.6-.24,2,2,0,0,1-.26-.12c-.12,0-.26,0-.37-.08-.45-.18-.46-.84-.21-1.2.13-.18.39-.25.46-.47a1.13,1.13,0,0,0-.12-.72,1.16,1.16,0,0,1-.12-.59,2.16,2.16,0,0,1,0-.36,1.25,1.25,0,0,1,.12-.34c.06-.22.16-.5.21-.72s-.2-.35-.45-.5-.19-.19-.36-.23-.23,0-.35,0a3.35,3.35,0,0,0-.83-.09,5.69,5.69,0,0,0-.72-.12,1.89,1.89,0,0,1-.71-.12,5.8,5.8,0,0,1-.69-.27c-.19-.11-.33-.25-.52-.36a1.76,1.76,0,0,0-.81-.2c-.26,0-.45-.13-.71-.12a6.13,6.13,0,0,0-1.55.14,9.23,9.23,0,0,0-1.3.36,4.54,4.54,0,0,0-.59.24c-.28.16-.57.16-.84.29a2,2,0,0,0-1.19,1.35,1.69,1.69,0,0,0,0,.71c0,.09.23.17.31.23a1.53,1.53,0,0,0,.38.27,8.83,8.83,0,0,0,3.33.21h1.43c.25,0,.26,0,.46.15a4.1,4.1,0,0,0,.72.2,1.1,1.1,0,0,1,.84,1.1c0,.17.08.65,0,.79s-.2.07-.24.1-.11.14-.18.19a3.25,3.25,0,0,1-.5.17c-.21.09-.43.18-.62.24-.37.12-.88.19-.93.62s-.07.87.38,1.05c.11,0,.2,0,.31,0s.15.15.26.19a1.46,1.46,0,0,0,.69,0l0-.1.36.24h1.55a3.07,3.07,0,0,0,.68,0c.19,0,.48-.19.72-.07s.18.39.26.58.19.26.26.44a1.26,1.26,0,0,0,.25.47c.21.22.4.11.68.18a4.71,4.71,0,0,0,1.3.21,7.49,7.49,0,0,0,1.9-.09,5.7,5.7,0,0,1,1.43,0,2.34,2.34,0,0,0,.71-.09c.27-.07.55,0,.81,0l.26-.09L24,55.5c.24-.1.49,0,.71-.14s.21-.25.36-.32a3.17,3.17,0,0,0,.36-.13,2.75,2.75,0,0,0,.26-.22,1.71,1.71,0,0,1,.33-.17c.26-.12.39-.17.5-.42a1,1,0,0,0,.11-.63C26.5,53.23,26,53.17,25.76,53.09Z"/></g></g></svg>