<svg xmlns="http://www.w3.org/2000/svg" viewBox="0 0 92.01 92.64"><defs><style>.cls-1{fill:#ffeeb7;}.cls-2{fill:#fce5a7;}.cls-3{fill:#f9dc93;}.cls-4{fill:#44c5e5;}</style></defs><title>Asset 5</title><g id="Layer_2" data-name="Layer 2"><g id="OBJECTS"><path class="cls-1" d="M92,46.32A45.69,45.69,0,1,1,46.32.62,45.68,45.68,0,0,1,92,46.32Z"/><path class="cls-2" d="M33.52,21.36a8.48,8.48,0,1,1-8.47-8.47A8.48,8.48,0,0,1,33.52,21.36Z"/><path class="cls-3" d="M20,23.59a8.48,8.48,0,0,1,11.21-8,8.47,8.47,0,1,0-8.91,13.81A8.39,8.39,0,0,1,20,23.59Z"/><path class="cls-2" d="M47.22,12.89a4.46,4.46,0,1,1-4.45-4.46A4.46,4.46,0,0,1,47.22,12.89Z"/><path class="cls-3" d="M40.12,14.06a4.46,4.46,0,0,1,4.46-4.45A4.57,4.57,0,0,1,46,9.84a4.46,4.46,0,1,0-4.69,7.27A4.44,4.44,0,0,1,40.12,14.06Z"/><path class="cls-2" d="M17.88,38a4.74,4.74,0,1,1-3.55-5.69A4.73,4.73,0,0,1,17.88,38Z"/><path class="cls-3" d="M10.25,37.48a4.73,4.73,0,0,1,5.68-3.55,4.9,4.9,0,0,1,1.43.59,4.73,4.73,0,1,0-6.59,6.4A4.68,4.68,0,0,1,10.25,37.48Z"/><path class="cls-2" d="M38.12,45.47a7.28,7.28,0,1,1-5.45-8.74A7.28,7.28,0,0,1,38.12,45.47Z"/><path class="cls-3" d="M26.39,44.72a7.29,7.29,0,0,1,10.94-4.54A7.28,7.28,0,1,0,27.18,50,7.24,7.24,0,0,1,26.39,44.72Z"/><path class="cls-2" d="M51.25,32.08a5.37,5.37,0,1,1-4-6.45A5.38,5.38,0,0,1,51.25,32.08Z"/><path class="cls-3" d="M42.6,31.53a5.38,5.38,0,0,1,6.44-4,5.6,5.6,0,0,1,1.63.67,5.38,5.38,0,1,0-7.49,7.27A5.37,5.37,0,0,1,42.6,31.53Z"/><path class="cls-2" d="M20.08,57.7a5.37,5.37,0,1,1-4-6.45A5.37,5.37,0,0,1,20.08,57.7Z"/><path class="cls-3" d="M11.42,57.15a5.38,5.38,0,0,1,6.45-4,5.6,5.6,0,0,1,1.63.67A5.38,5.38,0,1,0,12,61.05,5.35,5.35,0,0,1,11.42,57.15Z"/><path class="cls-2" d="M63,84.39a3.63,3.63,0,1,1,1-5A3.63,3.63,0,0,1,63,84.39Z"/><path class="cls-3" d="M59,80.09a3.61,3.61,0,0,1,5,1,3.35,3.35,0,0,1,.48,1.08A3.62,3.62,0,0,0,59,78.33a3.65,3.65,0,0,0-1.52,3.94A3.66,3.66,0,0,1,59,80.09Z"/><path class="cls-2" d="M67.79,70.05a5.71,5.71,0,1,1-1.44-7.95A5.72,5.72,0,0,1,67.79,70.05Z"/><path class="cls-3" d="M59.45,66.1a5.72,5.72,0,0,1,8-1.44A5.57,5.57,0,0,1,68.74,66,5.71,5.71,0,1,0,58.5,70.19,5.68,5.68,0,0,1,59.45,66.1Z"/><path class="cls-2" d="M79.13,73.45a4.53,4.53,0,1,1-2.38-6A4.54,4.54,0,0,1,79.13,73.45Z"/><path class="cls-3" d="M72,71.69a4.53,4.53,0,0,1,6-2.37,4.38,4.38,0,0,1,1.25.8,4.53,4.53,0,1,0-7.3,4.9A4.47,4.47,0,0,1,72,71.69Z"/><path class="cls-2" d="M84.67,60.42a6.89,6.89,0,1,1-3.61-9.05A6.89,6.89,0,0,1,84.67,60.42Z"/><path class="cls-3" d="M73.88,57.75a6.87,6.87,0,0,1,9-3.6,6.77,6.77,0,0,1,1.9,1.21,6.89,6.89,0,1,0-11.09,7.45A6.88,6.88,0,0,1,73.88,57.75Z"/><path class="cls-4" d="M23.05,46.32C23.05,25,37.72,6.39,57.53,1.39A45.54,45.54,0,0,0,46.32,0C21.08,0,0,21.08,0,46.32S21.08,92.64,46.32,92.64a46,46,0,0,0,11.21-1.39C37.72,86.25,23.05,67.69,23.05,46.32Z"/></g></g></svg>