<svg xmlns="http://www.w3.org/2000/svg" viewBox="0 0 54.46 54.46"><defs><style>.cls-1{fill:#f15b40;}.cls-2{fill:#f37053;}</style></defs><title>Asset 4</title><g id="Layer_2" data-name="Layer 2"><g id="planets"><path class="cls-1" d="M54.46,27.23A27.23,27.23,0,1,1,27.23,0,27.23,27.23,0,0,1,54.46,27.23Z"/><path class="cls-2" d="M54.44,26.51A27.08,27.08,0,0,0,49,10.83C43.82,16.45,40.77,24.79,54.44,26.51ZM22.27,40.94c-10.42,2.57-.42-7.15-3.17-10.8-2.05-2.71-10.67-2-18.86.66A27.24,27.24,0,0,0,10.82,49C18,44.55,25.15,46.63,34.74,53.4A27,27,0,0,0,44,48.69c-6.1-2.19-10.7-5.61-9.19-8.86,1.71-3.65,9.79-2.95,16.82-.47a27.39,27.39,0,0,0,2.22-6.22C33.09,23.75,31.89,38.57,22.27,40.94ZM17.75,11.18c0,3.65-11.84,11.57,2.85,12.61s18.65-3.23,15.32-7.92c-2.81-4-8-10.77.45-14.29a27.21,27.21,0,0,0-29.84,8C12.59,8.66,17.75,8.67,17.75,11.18Z"/></g></g></svg>