<svg xmlns="http://www.w3.org/2000/svg" viewBox="0 0 105.37 105.37"><defs><style>.cls-1{fill:#e6a361;}.cls-2{fill:#ecba88;}.cls-3{fill:#dd8328;}</style></defs><title>Asset 5</title><g id="Layer_2" data-name="Layer 2"><g id="planets"><path class="cls-1" d="M105.37,52.69A52.69,52.69,0,1,1,52.69,0,52.67,52.67,0,0,1,105.37,52.69Z"/><path class="cls-2" d="M50.09,19a5,5,0,1,0,0-9.94h-27a52.9,52.9,0,0,0-11,9.94Z"/><path class="cls-2" d="M103.67,66H82.45a5,5,0,0,0,0,10H100C101.36,72.81,103,69.48,103.67,66Z"/><path class="cls-2" d="M52.35,57.08H29.8a2.28,2.28,0,0,1,0-4.55H36a5,5,0,0,0,0-10H1A52.46,52.46,0,0,0,.5,59.88H52.35a1.4,1.4,0,1,0,0-2.8Z"/><path class="cls-3" d="M76.62,77.19h-24a2.63,2.63,0,0,1,0-5.26H55a3.71,3.71,0,1,0,0-7.42H1.35A52.66,52.66,0,0,0,19.91,93.92H62.39a3.71,3.71,0,0,0,0-7.42h-4.8a2.63,2.63,0,1,1,0-5.25h19a2,2,0,0,0,0-4.06Z"/><path class="cls-3" d="M61.88,23.84a2.24,2.24,0,0,0,2.23,2.24H74.22a3,3,0,0,1,0,6.05H50.64a5.72,5.72,0,0,0,0,11.44H67.48a3,3,0,1,1,0,6H60.79a2.24,2.24,0,0,0,0,4.47h44.55c0-.46,0-.93,0-1.4A52.46,52.46,0,0,0,95.22,21.6H64.11A2.24,2.24,0,0,0,61.88,23.84Z"/></g></g></svg>