<svg xmlns="http://www.w3.org/2000/svg" viewBox="0 0 92.01 92.64"><defs><style>.cls-1{fill:#ffeeb7;}.cls-2{fill:#fce5a7;}.cls-3{fill:#f9dc93;}.cls-4{fill:#44c5e5;}</style></defs><title>Asset 7</title><g id="Layer_2" data-name="Layer 2"><g id="OBJECTS"><path class="cls-1" d="M91.39,46.32A45.7,45.7,0,1,1,45.69.62,45.69,45.69,0,0,1,91.39,46.32Z"/><path class="cls-2" d="M32.89,21.36a8.47,8.47,0,1,1-8.47-8.47A8.48,8.48,0,0,1,32.89,21.36Z"/><path class="cls-3" d="M19.4,23.59a8.48,8.48,0,0,1,11.2-8,8.47,8.47,0,1,0-8.91,13.81A8.43,8.43,0,0,1,19.4,23.59Z"/><path class="cls-2" d="M46.6,12.89a4.46,4.46,0,1,1-4.46-4.46A4.46,4.46,0,0,1,46.6,12.89Z"/><path class="cls-3" d="M39.5,14.06A4.45,4.45,0,0,1,44,9.61a4.51,4.51,0,0,1,1.43.23,4.46,4.46,0,1,0-4.69,7.27A4.48,4.48,0,0,1,39.5,14.06Z"/><path class="cls-2" d="M17.25,38a4.74,4.74,0,1,1-3.54-5.69A4.73,4.73,0,0,1,17.25,38Z"/><path class="cls-3" d="M9.62,37.48a4.74,4.74,0,0,1,5.69-3.55,5,5,0,0,1,1.42.59,4.73,4.73,0,1,0-6.59,6.4A4.73,4.73,0,0,1,9.62,37.48Z"/><path class="cls-2" d="M37.49,45.47A7.28,7.28,0,1,1,32,36.73,7.27,7.27,0,0,1,37.49,45.47Z"/><path class="cls-3" d="M25.76,44.72a7.28,7.28,0,0,1,8.74-5.45,7.15,7.15,0,0,1,2.2.91A7.28,7.28,0,1,0,26.56,50,7.24,7.24,0,0,1,25.76,44.72Z"/><path class="cls-2" d="M50.63,32.08a5.37,5.37,0,1,1-4-6.45A5.39,5.39,0,0,1,50.63,32.08Z"/><path class="cls-3" d="M42,31.53a5.39,5.39,0,0,1,6.45-4,5.54,5.54,0,0,1,1.62.67,5.37,5.37,0,1,0-7.48,7.27A5.37,5.37,0,0,1,42,31.53Z"/><path class="cls-2" d="M19.46,57.7a5.38,5.38,0,1,1-4-6.45A5.38,5.38,0,0,1,19.46,57.7Z"/><path class="cls-3" d="M10.8,57.15a5.37,5.37,0,0,1,6.45-4,5.54,5.54,0,0,1,1.62.67,5.37,5.37,0,1,0-7.48,7.26A5.29,5.29,0,0,1,10.8,57.15Z"/><path class="cls-2" d="M62.32,84.39a3.62,3.62,0,1,1,1-5A3.62,3.62,0,0,1,62.32,84.39Z"/><path class="cls-3" d="M58.36,80.09a3.63,3.63,0,0,1,5,1,3.84,3.84,0,0,1,.48,1.08,3.62,3.62,0,1,0-7,.06A3.64,3.64,0,0,1,58.36,80.09Z"/><path class="cls-2" d="M67.16,70.05a5.71,5.71,0,1,1-1.44-7.95A5.71,5.71,0,0,1,67.16,70.05Z"/><path class="cls-3" d="M58.83,66.1a5.71,5.71,0,0,1,8-1.43A5.52,5.52,0,0,1,68.12,66a5.71,5.71,0,1,0-10.25,4.22A5.73,5.73,0,0,1,58.83,66.1Z"/><path class="cls-2" d="M78.5,73.45a4.53,4.53,0,1,1-2.37-6A4.53,4.53,0,0,1,78.5,73.45Z"/><path class="cls-3" d="M71.4,71.69a4.53,4.53,0,0,1,5.95-2.37,4.38,4.38,0,0,1,1.25.8A4.53,4.53,0,1,0,71.3,75,4.57,4.57,0,0,1,71.4,71.69Z"/><path class="cls-2" d="M84,60.42a6.89,6.89,0,1,1-3.6-9A6.89,6.89,0,0,1,84,60.42Z"/><path class="cls-3" d="M73.25,57.75a6.89,6.89,0,0,1,10.94-2.39A6.89,6.89,0,0,0,71.39,55a6.91,6.91,0,0,0,1.71,7.83A6.88,6.88,0,0,1,73.25,57.75Z"/><path class="cls-4" d="M45.69,0C41.8,0,38,1.11,34.4,2a45.71,45.71,0,0,1,0,88.58c3.62.91,7.4,2,11.29,2C70.93,92.64,92,71.56,92,46.32S70.93,0,45.69,0Z"/></g></g></svg>