<svg xmlns="http://www.w3.org/2000/svg" viewBox="0 0 154.9 79.62"><defs><style>.cls-1{fill:#d2bb98;}.cls-2{fill:#c6a87d;}.cls-3{fill:#e6d9c6;}</style></defs><title>Asset 6</title><g id="Layer_2" data-name="Layer 2"><g id="planets"><path class="cls-1" d="M115.34,29.51A39.8,39.8,0,1,1,66.6,1.37,39.81,39.81,0,0,1,115.34,29.51Z"/><path class="cls-2" d="M74,24.61a4.19,4.19,0,0,0-5.13-3L38.37,29.84a39.15,39.15,0,0,0-1.26,9l34-9.1A4.18,4.18,0,0,0,74,24.61Zm7.72-9.11L103,9.8a39.57,39.57,0,0,0-9.48-6.13l-14,3.74a4.19,4.19,0,0,0,2.17,8.09ZM59.32,62.58l27.81-7.45A4.19,4.19,0,1,0,85,47L57.15,54.49a4.19,4.19,0,0,0,2.17,8.09Zm54.34-38L75.49,34.79a4.19,4.19,0,0,0,2.17,8.09L116,32.6c-.19-1-.41-2.06-.69-3.09A39.85,39.85,0,0,0,113.66,24.57Zm-18.26,37-41.1,11A40.1,40.1,0,0,0,66,78.1l31.55-8.46a4.19,4.19,0,0,0-2.16-8.09Z"/><path class="cls-3" d="M109.93,17.61c.57.85,1.11,1.71,1.62,2.6,9-.23,14.92,1.11,15.73,4.12,1.69,6.31-19.72,17.53-47.82,25.06S27.21,57.91,25.52,51.6c-.8-3,3.65-7.13,11.57-11.44,0-1,0-2,.1-3-14.93,7-23.93,14.26-22.55,19.38,2.27,8.48,32,7.88,66.37-1.33s60.42-23.56,58.15-32C137.78,18,126.35,16.2,109.93,17.61Z"/><path class="cls-3" d="M107.74,14.66c.49.6,1,1.22,1.43,1.86,18-1.63,30.53.48,32.07,6.26C143.71,32,117.5,47,81.42,56.68s-66.3,9.76-68.76.56c-1.55-5.78,8.22-13.86,24.64-21.46.08-.78.18-1.56.31-2.33C13.28,43.49-1.9,54.79.19,62.58c3,11,39.36,10.86,82.61-.73s74.87-29.64,71.91-40.67C152.62,13.39,133.83,11.19,107.74,14.66Z"/></g></g></svg>