<svg xmlns="http://www.w3.org/2000/svg" viewBox="0 0 92.01 92.63"><defs><style>.cls-1{fill:#ffeeb7;}.cls-2{fill:#fce5a7;}.cls-3{fill:#f9dc93;}.cls-4{fill:#44c5e5;}</style></defs><title>Asset 9</title><g id="Layer_2" data-name="Layer 2"><g id="OBJECTS"><path class="cls-1" d="M91.39,46.32A45.7,45.7,0,1,1,45.69.62,45.7,45.7,0,0,1,91.39,46.32Z"/><path class="cls-2" d="M32.89,21.36a8.47,8.47,0,1,1-8.47-8.48A8.47,8.47,0,0,1,32.89,21.36Z"/><path class="cls-3" d="M19.4,23.59a8.47,8.47,0,0,1,8.47-8.47,8.19,8.19,0,0,1,2.73.45,8.47,8.47,0,1,0-8.91,13.81A8.45,8.45,0,0,1,19.4,23.59Z"/><path class="cls-2" d="M46.6,12.88a4.46,4.46,0,1,1-4.46-4.45A4.46,4.46,0,0,1,46.6,12.88Z"/><path class="cls-3" d="M39.5,14.06A4.46,4.46,0,0,1,44,9.6a4.52,4.52,0,0,1,1.43.24A4.46,4.46,0,1,0,40.7,17.1,4.44,4.44,0,0,1,39.5,14.06Z"/><path class="cls-2" d="M17.25,38a4.74,4.74,0,1,1-3.54-5.68A4.73,4.73,0,0,1,17.25,38Z"/><path class="cls-3" d="M9.62,37.48a4.74,4.74,0,0,1,5.68-3.55,4.64,4.64,0,0,1,1.43.59,4.73,4.73,0,1,0-6.59,6.4A4.74,4.74,0,0,1,9.62,37.48Z"/><path class="cls-2" d="M37.49,45.46A7.28,7.28,0,1,1,32,36.73,7.29,7.29,0,0,1,37.49,45.46Z"/><path class="cls-3" d="M25.76,44.72a7.29,7.29,0,0,1,8.74-5.46,7.4,7.4,0,0,1,2.2.91A7.28,7.28,0,1,0,26.56,50,7.25,7.25,0,0,1,25.76,44.72Z"/><path class="cls-2" d="M50.63,32.08a5.38,5.38,0,1,1-4-6.45A5.38,5.38,0,0,1,50.63,32.08Z"/><path class="cls-3" d="M42,31.53a5.37,5.37,0,0,1,6.45-4,5.54,5.54,0,0,1,1.62.67,5.37,5.37,0,1,0-7.48,7.26A5.35,5.35,0,0,1,42,31.53Z"/><path class="cls-2" d="M19.46,57.69a5.38,5.38,0,1,1-4-6.44A5.37,5.37,0,0,1,19.46,57.69Z"/><path class="cls-3" d="M10.8,57.14a5.37,5.37,0,0,1,8.07-3.35A5.38,5.38,0,0,0,9,55.27a5.38,5.38,0,0,0,2.4,5.78A5.36,5.36,0,0,1,10.8,57.14Z"/><path class="cls-2" d="M62.33,84.39a3.63,3.63,0,1,1,1-5A3.63,3.63,0,0,1,62.33,84.39Z"/><path class="cls-3" d="M58.36,80.09a3.62,3.62,0,0,1,5,1,3.72,3.72,0,0,1,.48,1.08,3.62,3.62,0,1,0-7,.05A3.55,3.55,0,0,1,58.36,80.09Z"/><path class="cls-2" d="M67.16,70.05a5.71,5.71,0,1,1-1.44-7.95A5.71,5.71,0,0,1,67.16,70.05Z"/><path class="cls-3" d="M58.83,66.1a5.71,5.71,0,0,1,8-1.44A5.92,5.92,0,0,1,68.12,66a5.71,5.71,0,1,0-10.25,4.23A5.67,5.67,0,0,1,58.83,66.1Z"/><path class="cls-2" d="M78.5,73.44a4.53,4.53,0,1,1-2.37-6A4.53,4.53,0,0,1,78.5,73.44Z"/><path class="cls-3" d="M71.4,71.69a4.54,4.54,0,0,1,5.95-2.38,4.64,4.64,0,0,1,1.25.81A4.53,4.53,0,1,0,71.3,75,4.52,4.52,0,0,1,71.4,71.69Z"/><path class="cls-2" d="M84,60.42a6.89,6.89,0,1,1-3.6-9.05A6.88,6.88,0,0,1,84,60.42Z"/><path class="cls-3" d="M73.25,57.75a6.87,6.87,0,0,1,10.94-2.39A6.89,6.89,0,1,0,73.1,62.81,6.88,6.88,0,0,1,73.25,57.75Z"/><path class="cls-4" d="M46.06,0V92.63c25.07-.2,46-21.2,46-46.31S71.13.19,46.06,0Z"/></g></g></svg>