<svg xmlns="http://www.w3.org/2000/svg" viewBox="0 0 65.21 65.21"><defs><style>.cls-1{fill:#008fd5;}.cls-2{fill:#009bdf;}</style></defs><title>Asset 7</title><g id="Layer_2" data-name="Layer 2"><g id="planets"><path class="cls-1" d="M65.21,32.6A32.61,32.61,0,1,1,32.6,0,32.61,32.61,0,0,1,65.21,32.6Z"/><path class="cls-2" d="M31.94,39.87C26.62,34.55,8.18,41,8.18,45.53c0,6,13.68,12.3,18.65,10.09S37.26,45.19,31.94,39.87Zm-7.12,24.4a32.62,32.62,0,0,0,28.51-6.5C39.2,55,30.33,59.25,24.82,64.27Zm30.51-55A215.62,215.62,0,0,0,8.22,11a32.5,32.5,0,0,0-4.84,7.19c17.93-.54,36.53-.21,37.26,3.45S18,27,.76,25.65A33,33,0,0,0,0,32c18.18,2.59,44.22,3.28,65.16,1.94,0-.44,0-.87,0-1.32A32.49,32.49,0,0,0,55.33,9.24ZM39.4,45.12c0,3,11,3.78,21.35,3.94a32.16,32.16,0,0,0,3.78-9.83C50.75,39.74,39.4,41.32,39.4,45.12Z"/></g></g></svg>