<svg xmlns="http://www.w3.org/2000/svg" viewBox="0 0 65.21 65.21"><defs><style>.cls-1{fill:#b0dfdb;}.cls-2{fill:#a0cbc9;}</style></defs><title>Asset 8</title><g id="Layer_2" data-name="Layer 2"><g id="planets"><path class="cls-1" d="M65.21,32.61A32.61,32.61,0,1,1,32.61,0,32.61,32.61,0,0,1,65.21,32.61Z"/><path class="cls-2" d="M33.57,20a3.44,3.44,0,0,0-3.43-3.43H4.23a33,33,0,0,0-2.9,6.86H30.14A3.43,3.43,0,0,0,33.57,20Zm8-5.57h18a32.91,32.91,0,0,0-6.2-6.86H41.61a3.43,3.43,0,1,0,0,6.86ZM13.87,46.89H37.45a3.43,3.43,0,1,0,0-6.86H13.87a3.43,3.43,0,1,0,0,6.86ZM64.92,28.34H32.56a3.43,3.43,0,0,0,0,6.86H65.1c.07-.86.11-1.72.11-2.59A31.57,31.57,0,0,0,64.92,28.34ZM42.63,53.73H7.78a32.68,32.68,0,0,0,8.09,6.86H42.63a3.43,3.43,0,0,0,0-6.86Z"/></g></g></svg>