<svg xmlns="http://www.w3.org/2000/svg" viewBox="0 0 32.58 32.58"><defs><style>.cls-1{fill:#dcddde;}.cls-2{fill:#d1d3d4;}</style></defs><title>Asset 9</title><g id="Layer_2" data-name="Layer 2"><g id="planets"><path class="cls-1" d="M32.58,16.29A16.29,16.29,0,1,1,16.29,0,16.3,16.3,0,0,1,32.58,16.29Z"/><path class="cls-2" d="M8.23,13.3C12.92,11,11.57,6.37,7.57,2.55A16.23,16.23,0,0,0,1.2,22.4C5.58,19.84,3.19,15.75,8.23,13.3Zm8.31,7.11c-5.15-1.51-9.16,1.91-11.8,7.37A16.15,16.15,0,0,0,20.37,32C21.23,26.81,20.64,21.62,16.54,20.41ZM21.06.71C16.72,4,16.74,8,23.43,12.43c7.23,4.82,0,9.6,2.12,17.25a16.28,16.28,0,0,0-4.49-29Z"/></g></g></svg>