<svg xmlns="http://www.w3.org/2000/svg" viewBox="0 0 19.06 13"><defs><style>.cls-1{fill:#fff;fill-rule:evenodd;}</style></defs><title>Asset 1</title><g id="Layer_2" data-name="Layer 2"><g id="Layer_1-2" data-name="Layer 1"><g id="Page-1"><g id="icon-30-sunrise"><path id="sunrise" class="cls-1" d="M6.61,10H4.05c0-.16,0-.33,0-.5a5.5,5.5,0,0,1,11,0c0,.17,0,.34,0,.5H12.45L9.53,7.5,6.61,10ZM9.53,0A.5.5,0,0,0,9,.5v2a.5.5,0,0,0,.5.5.5.5,0,0,0,.5-.5V.5a.5.5,0,0,0-.5-.5Zm6.74,2.79a.5.5,0,0,0-.71,0L14.14,4.21a.5.5,0,0,0,0,.7.49.49,0,0,0,.7,0l1.42-1.43a.5.5,0,0,0,0-.7Zm2.79,6.74a.5.5,0,0,0-.5-.5h-2a.5.5,0,0,0-.49.5.49.49,0,0,0,.49.5h2a.5.5,0,0,0,.5-.5ZM0,9.53a.5.5,0,0,0,.5.5h2a.5.5,0,0,0,.5-.5A.5.5,0,0,0,2.5,9H.5a.5.5,0,0,0-.5.5ZM.57,12a.51.51,0,0,0-.51.5.5.5,0,0,0,.51.5H6.64l1.17-1,1.75-1.5L11.31,12l1.16,1h6.08a.51.51,0,0,0,.51-.5.5.5,0,0,0-.51-.5H13.06L9.56,9l-3.5,3ZM2.79,2.79a.49.49,0,0,0,0,.7L4.21,4.92a.5.5,0,0,0,.7,0,.49.49,0,0,0,0-.7L3.49,2.79a.49.49,0,0,0-.7,0Z"/></g></g></g></g></svg>