<svg id="Layer_1" data-name="Layer 1" xmlns="http://www.w3.org/2000/svg" viewBox="0 0 336.21 350.26"><defs><style>.cls-1{fill:#44c5e5;}.cls-2{fill:#010101;}.cls-3{fill:#bdbec0;}.cls-4{fill:#e6e7e7;}.cls-5{fill:#fff;}.cls-6{fill:#fef6bc;}</style></defs><title>telescope</title><path class="cls-1" d="M294.72,216.34A137.55,137.55,0,1,0,127.43,350.63L153.51,247.3a13.88,13.88,0,0,0,6.94,3.84L135,352.08a137.86,137.86,0,0,0,56.74-2.57L166.86,251a12.74,12.74,0,0,0,6.87-4.17L199.1,347.36A137.59,137.59,0,0,0,294.72,216.34Z" transform="translate(-18.25 -5)"/><path class="cls-2" d="M157.17,355.26a140.32,140.32,0,0,1-22.41-1.82,1.36,1.36,0,0,1-1.11-1.69l25.14-99.64a15,15,0,0,1-4.5-2.31L128.76,351a1.36,1.36,0,0,1-1.62,1C64.05,338.06,18.25,281,18.25,216.34c0-76.6,62.32-138.91,138.92-138.91s138.92,62.31,138.92,138.91a138.46,138.46,0,0,1-96.57,132.33,1.42,1.42,0,0,1-1.09-.11,1.36,1.36,0,0,1-.66-.86L173,249.46a14.69,14.69,0,0,1-3.46,2.12c-.34.15-.67.27-1,.38l24.54,97.21a1.38,1.38,0,0,1-1,1.67A139.24,139.24,0,0,1,157.17,355.26ZM136.68,351a136.74,136.74,0,0,0,53.38-2.44l-24.53-97.18a1.39,1.39,0,0,1,1-1.67,11.34,11.34,0,0,0,1.9-.61,12.29,12.29,0,0,0,4.28-3.14,1.39,1.39,0,0,1,1.36-.42,1.36,1.36,0,0,1,1,1l25,99.11a135.72,135.72,0,0,0,93.28-129.26c0-75.08-61.09-136.17-136.18-136.17S21,141.26,21,216.34c0,63,44.26,118.52,105.43,132.66l25.75-102a1.37,1.37,0,0,1,2.31-.62,12.47,12.47,0,0,0,6.26,3.46,1.33,1.33,0,0,1,.87.61,1.37,1.37,0,0,1,.17,1.06Z" transform="translate(-18.25 -5)"/><rect class="cls-3" x="69.76" y="241.97" width="20.38" height="20.61" transform="translate(-112.79 48.3) rotate(-23.66)"/><path class="cls-2" d="M74.75,267.17a1.43,1.43,0,0,1-.5-.09,1.39,1.39,0,0,1-.76-.73l-8.27-18.87a1.37,1.37,0,0,1,.71-1.81l18.66-8.18a1.32,1.32,0,0,1,1,0,1.35,1.35,0,0,1,.76.72l8.27,18.88a1.37,1.37,0,0,1-.7,1.81L75.3,267.06A1.46,1.46,0,0,1,74.75,267.17Zm-6.46-19.54L75.46,264l16.14-7.08-7.16-16.35Z" transform="translate(-18.25 -5)"/><rect class="cls-4" x="83.22" y="199.82" width="144.26" height="38.82" transform="translate(-93.18 75.77) rotate(-23.66)"/><path class="cls-2" d="M97.07,267.34a1.38,1.38,0,0,1-1.26-.83L80.23,231a1.38,1.38,0,0,1,.71-1.81l132.13-57.89a1.41,1.41,0,0,1,1.05,0,1.36,1.36,0,0,1,.76.73l15.58,35.56a1.38,1.38,0,0,1-.71,1.81L97.62,267.22A1.33,1.33,0,0,1,97.07,267.34ZM83.3,231.11l14.48,33,129.61-56.79-14.47-33Z" transform="translate(-18.25 -5)"/><path class="cls-3" d="M249.21,201.81a3.67,3.67,0,0,1-1.89,4.84L235,212.07a3.69,3.69,0,0,1-4.85-1.9L212.7,170.4a3.67,3.67,0,0,1,1.89-4.84l12.35-5.41a3.68,3.68,0,0,1,4.85,1.89Z" transform="translate(-18.25 -5)"/><path class="cls-2" d="M233.5,213.75a5,5,0,0,1-4.63-3L211.44,171a5.05,5.05,0,0,1,2.6-6.66l12.35-5.41a5.16,5.16,0,0,1,6.66,2.6l17.42,39.77a5,5,0,0,1-2.6,6.65l-12.35,5.42A5,5,0,0,1,233.5,213.75Zm-5.08-52.54a2.32,2.32,0,0,0-.93.2l-12.35,5.41a2.3,2.3,0,0,0-1.18,3l17.42,39.77a2.35,2.35,0,0,0,3,1.19l12.35-5.41a2.32,2.32,0,0,0,1.19-3l-17.43-39.77A2.31,2.31,0,0,0,228.42,161.21Z" transform="translate(-18.25 -5)"/><path class="cls-5" d="M75.45,267.39a2,2,0,0,1-1,2.69l-6.85,3a2,2,0,0,1-2.69-1L55.19,250a2,2,0,0,1,1.05-2.69l6.85-3a2,2,0,0,1,2.69,1.05Z" transform="translate(-18.25 -5)"/><path class="cls-2" d="M66.73,274.63a3.42,3.42,0,0,1-3.13-2l-9.67-22.07a3.42,3.42,0,0,1,0-2.61A3.36,3.36,0,0,1,55.69,246l6.85-3a3.49,3.49,0,0,1,4.5,1.75l9.67,22.07a3.43,3.43,0,0,1-1.76,4.5l-6.85,3A3.43,3.43,0,0,1,66.73,274.63Zm-2.82-29.15-7.12,3.06a.65.65,0,0,0-.35.36.66.66,0,0,0,0,.52l9.67,22.06a.68.68,0,0,0,.88.35l6.85-3a.67.67,0,0,0,.34-.88l-9.67-22.06A.67.67,0,0,0,63.91,245.48Z" transform="translate(-18.25 -5)"/><path class="cls-2" d="M226.74,203.83a1.38,1.38,0,0,1-.55-2.64l14.27-6.25a1.37,1.37,0,1,1,1.1,2.52l-14.27,6.25A1.33,1.33,0,0,1,226.74,203.83Z" transform="translate(-18.25 -5)"/><path class="cls-2" d="M93.42,259a1.36,1.36,0,0,1-1.26-.82,1.37,1.37,0,0,1,.7-1.81l35.24-15.44a1.38,1.38,0,0,1,1.81.71,1.36,1.36,0,0,1-.71,1.81L94,258.88A1.35,1.35,0,0,1,93.42,259Z" transform="translate(-18.25 -5)"/><path class="cls-2" d="M139.77,238.69a1.38,1.38,0,0,1-.55-2.64l17.4-7.62a1.37,1.37,0,1,1,1.11,2.51l-17.41,7.63A1.33,1.33,0,0,1,139.77,238.69Z" transform="translate(-18.25 -5)"/><path class="cls-3" d="M153.51,247.3,127.43,350.63c2.49.55,5,1,7.55,1.45l25.47-100.94A13.88,13.88,0,0,1,153.51,247.3Z" transform="translate(-18.25 -5)"/><path class="cls-2" d="M135,353.46l-.22,0c-2.47-.4-5-.9-7.62-1.47a1.37,1.37,0,0,1-.88-.62,1.39,1.39,0,0,1-.16-1.06L152.18,247a1.37,1.37,0,0,1,2.31-.62,12.47,12.47,0,0,0,6.26,3.46,1.33,1.33,0,0,1,.87.61,1.37,1.37,0,0,1,.17,1.06l-25.48,101A1.37,1.37,0,0,1,135,353.46Zm-5.87-3.87c1.64.34,3.26.65,4.85.93l24.83-98.41a15,15,0,0,1-4.5-2.31Z" transform="translate(-18.25 -5)"/><path class="cls-3" d="M169,250.32a13.63,13.63,0,0,1-2.11.68l24.86,98.51c2.49-.64,4.95-1.37,7.38-2.15L173.73,246.83A13.62,13.62,0,0,1,169,250.32Z" transform="translate(-18.25 -5)"/><path class="cls-2" d="M191.72,350.89a1.4,1.4,0,0,1-1.33-1l-24.86-98.51a1.39,1.39,0,0,1,1-1.67,11.34,11.34,0,0,0,1.9-.61,12.29,12.29,0,0,0,4.28-3.14,1.39,1.39,0,0,1,1.36-.42,1.36,1.36,0,0,1,1,1L200.43,347a1.37,1.37,0,0,1-.91,1.65c-2.71.86-5.15,1.58-7.45,2.17A1.41,1.41,0,0,1,191.72,350.89ZM168.52,252l24.19,95.87c1.5-.41,3.07-.87,4.74-1.39l-24.47-97a14.69,14.69,0,0,1-3.46,2.12C169.18,251.73,168.85,251.85,168.52,252Z" transform="translate(-18.25 -5)"/><path class="cls-5" d="M176.11,232c-.09-.2-.22-.37-.32-.57l-25.31,11.09c.08.21.11.42.2.62A13.86,13.86,0,0,0,166.86,251a12.74,12.74,0,0,0,6.87-4.17A13.85,13.85,0,0,0,176.11,232Z" transform="translate(-18.25 -5)"/><path class="cls-2" d="M163.37,252.83a15.43,15.43,0,0,1-14-9.1,5.08,5.08,0,0,1-.17-.51,1.54,1.54,0,0,1,.68-1.92l25.31-11.09a1.39,1.39,0,0,1,1.79.66,3.75,3.75,0,0,1,.34.63,15.25,15.25,0,0,1-2.62,16.24,14.93,14.93,0,0,1-5.23,3.84,17.11,17.11,0,0,1-6.15,1.25Zm-11.1-9.55a12.21,12.21,0,0,0,2.22,3.06,12.4,12.4,0,0,0,12,3.33,11.34,11.34,0,0,0,1.9-.61,12.29,12.29,0,0,0,4.28-3.14,12.54,12.54,0,0,0,2.42-12.66Z" transform="translate(-18.25 -5)"/><path class="cls-2" d="M234.88,267.34h-8.14a1.38,1.38,0,0,1,0-2.75h8.14a1.38,1.38,0,1,1,0,2.75Z" transform="translate(-18.25 -5)"/><path class="cls-2" d="M252.3,267.34h-8.15a1.38,1.38,0,0,1,0-2.75h8.15a1.38,1.38,0,0,1,0,2.75Z" transform="translate(-18.25 -5)"/><path class="cls-2" d="M239.52,262.7a1.37,1.37,0,0,1-1.37-1.37v-8.15a1.38,1.38,0,0,1,2.75,0v8.15A1.37,1.37,0,0,1,239.52,262.7Z" transform="translate(-18.25 -5)"/><path class="cls-2" d="M239.52,280.12a1.37,1.37,0,0,1-1.37-1.38V270.6a1.38,1.38,0,1,1,2.75,0v8.14A1.38,1.38,0,0,1,239.52,280.12Z" transform="translate(-18.25 -5)"/><path class="cls-6" d="M244.15,266a4.64,4.64,0,1,1-4.63-4.63A4.63,4.63,0,0,1,244.15,266Z" transform="translate(-18.25 -5)"/><path class="cls-2" d="M239.52,272a6,6,0,1,1,6-6A6,6,0,0,1,239.52,272Zm0-9.27a3.26,3.26,0,1,0,3.26,3.26A3.27,3.27,0,0,0,239.52,262.7Z" transform="translate(-18.25 -5)"/><path class="cls-2" d="M76.85,173.88H68.71a1.38,1.38,0,0,1,0-2.75h8.14a1.38,1.38,0,1,1,0,2.75Z" transform="translate(-18.25 -5)"/><path class="cls-2" d="M94.27,173.88H86.12a1.38,1.38,0,0,1,0-2.75h8.15a1.38,1.38,0,0,1,0,2.75Z" transform="translate(-18.25 -5)"/><path class="cls-2" d="M81.49,169.25a1.38,1.38,0,0,1-1.38-1.38v-8.14a1.38,1.38,0,0,1,2.75,0v8.14A1.37,1.37,0,0,1,81.49,169.25Z" transform="translate(-18.25 -5)"/><path class="cls-2" d="M81.49,186.66a1.37,1.37,0,0,1-1.38-1.37v-8.15a1.38,1.38,0,0,1,2.75,0v8.15A1.37,1.37,0,0,1,81.49,186.66Z" transform="translate(-18.25 -5)"/><path class="cls-6" d="M86.12,172.51a4.64,4.64,0,1,1-4.63-4.64A4.63,4.63,0,0,1,86.12,172.51Z" transform="translate(-18.25 -5)"/><path class="cls-2" d="M81.49,178.52a6,6,0,1,1,6-6A6,6,0,0,1,81.49,178.52Zm0-9.27a3.26,3.26,0,1,0,3.26,3.26A3.26,3.26,0,0,0,81.49,169.25Z" transform="translate(-18.25 -5)"/><path class="cls-6" d="M130.58,127a25.19,25.19,0,0,1,1.57-23.69,26.33,26.33,0,1,0,37.11,33,25.56,25.56,0,0,1-5.34,3.3A25.2,25.2,0,0,1,130.58,127Z" transform="translate(-18.25 -5)"/><path class="cls-2" d="M144.9,154.12a27.71,27.71,0,0,1-13.41-52,1.37,1.37,0,0,1,1.83,1.93,23.81,23.81,0,0,0,30,34.29,24.1,24.1,0,0,0,5.05-3.12,1.37,1.37,0,0,1,2.13,1.59,27.7,27.7,0,0,1-25.63,17.28Zm-16.29-46.64a25,25,0,1,0,37,32.87c-.36.18-.73.36-1.09.52a26.57,26.57,0,0,1-35.88-33.39Z" transform="translate(-18.25 -5)"/><path class="cls-5" d="M110.64,34.18c.88,1.89,0,3.07-3.29,4.75l-2.54,1.44c4.27,7.55,7.86,9.41,10.42,8.21s2.94-7.8,3-9.46.16-3.87.7-4.12,2.45,1,3.08,2.35a10.15,10.15,0,0,1,.17,3.54c-.56,8.66-1.66,13.7-9.83,17.52C107.41,60.72,99.83,59.65,93,47.6c-3.94,2.67-7.51,5.24-10.5,7.46,1.59,14.32-.42,23.58-11.23,28.63-8.24,3.86-19.77.85-24.82-10-6.19-13.24.9-24.13,9-27.92,4.66-2.18,8.87-1.11,9.41,0s0,3.31-1,3.78-3.08.29-4.5,1c-3.58,1.67-5.83,7.25-2,15.42,4.29,9.19,10.83,10.66,14.95,8.74,3.37-1.58,3.17-6.59,1.91-13.33A17,17,0,0,1,72,62.86c-3,1.42-8,.06-8.9-1.77-.6-1.28.36-2.22,2.11-3.94,2.19-2,4.4-4,6.75-5.8-.59-2.68-1.19-5.53-1.68-8.35-3.14-17.79-.6-26.63,7.85-32.15,0,0,0-1.3,1.72-2.12,3.85-1.8,10.05-1.41,12.38,3.59C93.53,15,95.6,21.38,100,30.7L101.5,34c1.22-.57,2.4-1.2,3.62-1.77S109.79,32.36,110.64,34.18ZM81,45.08c2.68-1.66,5.52-3.32,8.33-4.88l-.22-.47a145.83,145.83,0,0,1-8.77-23s-4.3,2.43-1,19.39Z" transform="translate(-18.25 -5)"/><path class="cls-5" d="M130.07,12.93c.65,4.65-.41,7.89-.1,10.1.83,5.91,12.56,8.49,14.2,20.23.81,5.83-3.89,11-11.12,12-6.13.86-9-2.35-10.17-2.19-2,2-3.72,3.53-5.5,3.78a2.49,2.49,0,0,1-2.73-1.8c-.15-1,1.13-2.64,2.11-4.81,3.43-7.26,5.92-21.23,5.59-23.59s-1.95-2.67-2.49-6.51.74-9.28,2.8-9.57C124.29,10.35,129.7,10.27,130.07,12.93Zm-5.16,35.28c.13,1,1.17,1.41,2.65,1.21,2.07-.29,3.83-2.8,3.51-5.08a10.88,10.88,0,0,0-3.64-6.65S124.76,47.17,124.91,48.21Z" transform="translate(-18.25 -5)"/><path class="cls-5" d="M182.68,15.74a46.1,46.1,0,0,1-.93,5.83c-.13,1.56,11,4.05,10.45,10.21s-1.7,9.81-2,13.23.81,4.7,2,4.8c1.78.15,5.08-7.21,6-9.83s1-2.76,1.5-2.72,1.07,1.59,1.78,2.84a6.42,6.42,0,0,1,.62,3.42,8,8,0,0,1-.94,3.21c-1.6,3.09-6.48,9.64-13.54,9.06s-10.06-5.85-9.64-11c.52-6.24,4.16-12.3,4.31-14.16.06-.74-2.3-2.06-2.74-2.09-3.33,7.73-8.48,25.7-22.52,24.54-7.29-.6-12.1-5.71-11.27-15.81.26-3.12,2.37-9.68,2.89-13.23.16-1-2.82-2-2.7-3.51s3.54-1.21,3.54-1.21c1.2-6.33,2.22-10.59,2.31-11.62s-.31-1.75-.27-2.27c0-.37.42-.49.94-.45s4.53,2.17,7,3.12,2.64,3.36,2.46,5.52-.67,3.53-.76,4.65c0,.29.41.48,1.08.54,1.78.14,4.56.07,5.89.18a1.12,1.12,0,0,1,1.11,1.14,6,6,0,0,1-4.51,4.72c-2.65.38-4.37.46-4.37.46A110.75,110.75,0,0,0,158,39.65c-.47,5.65,1,6.89,3.45,7.09,6.17.51,12.08-15.83,14.18-22.24-2.73-3.22-5.29-7.54-5-11.25s4.46-6,6.76-5.81C181.24,7.76,183.09,10.83,182.68,15.74Z" transform="translate(-18.25 -5)"/><path class="cls-5" d="M227.2,37.07c-.42,1.2-2.18,1.06-2.28,1.34s.18.38,1.09.94c1.24.74,5.86,2.91,5.09,5.09s-3,5.19-4.59,9.77-1.31,5.31-.39,5.63c1.19.41,5.49-4.64,7.84-7.53.93-1.09,1.63-1.72,2.19-1.52s.58.59.34,1.3-1,1.63-1.22,2.34a28.84,28.84,0,0,1-1.27,5c-1.21,3.45-6.16,8.59-13.13,6.16s-7.45-8.53-7.45-8.53C210,59.58,207,61.28,203.24,60c-6.26-2.19-8.18-9.57-6.12-15.49,3.62-10.34,14-16.89,20.8-14.53C221.65,31.27,227.62,35.88,227.2,37.07Zm-21.07,14.2c-.52,1.48,0,2.6,1.23,3C210.1,55.27,219,45.66,221,40,213.67,40.09,207.41,47.61,206.13,51.27Z" transform="translate(-18.25 -5)"/><path class="cls-5" d="M263.65,57.56c-.83,1.32-4.52.33-4.8.77s5.31,5.44,3.72,8-7.85,12.41-7.85,12.41c5.24-1.2,8.35-3.65,10.79-5.29,1.3-1,2.75-2.15,3.26-1.83,1.45.91,1.13,3.52-.14,5.55-2.61,4.17-14.69,8.3-19.25,8.69-1,1.59-6.45,8.19-11.73,8.76-5.82.58-8.33-.47-9.78-1.38-6.64-4.15-10.66-13.88-8.36-17.55.75-1.2,2.94-2,5.55-1.71a141.26,141.26,0,0,1,15.4,3.22s4.15-4.79,4.08-4.83-6,3.17-9.25,1.16c-5.5-3.45-7.61-10.75-3.1-17.95s18.14-12.39,22.56-9.62C260.38,49.44,264.48,56.23,263.65,57.56Zm-37.6,23.51c-.55.89.08,2,2.67,3.61s7.53-2.06,7.53-2.06S226.65,80.12,226.05,81.07ZM239.3,64.83c-.67,1.07-.56,2,.33,2.57,1.26.8,5.53-1.1,9-2.92a32.82,32.82,0,0,0,7.11-6C252.47,56.45,241.28,61.67,239.3,64.83Z" transform="translate(-18.25 -5)"/><path class="cls-5" d="M293.94,80.91c-.87.93-2.42.08-2.63.3s0,.42.63,1.3c.83,1.19,4.17,5,2.59,6.72s-4.84,3.54-8.15,7.07-3.34,4.33-2.63,5c.92.86,6.9-2,10.21-3.72,1.3-.62,2.19-.91,2.63-.51s.29.79-.22,1.33-1.55,1.11-2.06,1.65a28.75,28.75,0,0,1-3.19,4.06c-2.49,2.67-9.1,5.37-14.49.32s-3.37-10.8-3.37-10.8c-4.14.92-7.61,1.25-10.49-1.45-4.85-4.53-3.62-12.07.66-16.64,7.49-8,19.67-9.78,24.9-4.89C291.21,73.35,294.81,80,293.94,80.91Zm-25,4.47c-1.07,1.14-1.09,2.36-.1,3.28,2.12,2,14.13-3.22,18.26-7.62C280.35,78.2,271.58,82.55,268.93,85.38Z" transform="translate(-18.25 -5)"/><path class="cls-5" d="M313.74,100.18c3.3,4.51,3.49,12.22-1.57,15.92-3.49,2.55-7.34,1.58-10.19.33a15.38,15.38,0,0,1-.15,6.11,11.73,11.73,0,0,0,4.24,2.26c1.79.44,3,.85,3.36,1.33s-1.08,2.18-2.71,3.36-7.25-2.09-7.25-2.09a18.27,18.27,0,0,1-4.53,4.42c-3.19,2.33-13.13,3.77-19.59-5.08-4.44-6.08-2.16-14.58,1-16.87,3.73-2.73,18.33,6.65,18.33,6.65s1.26-1.94.25-3.33-2.49-1.13-3.28-2.21-.05-5.51,1.39-6.56,1.56-.4,5.93.65,7.61,1.46,9.36.18a1.29,1.29,0,0,0,.31-2c-1.1-1.5-5.16-2.14-7.78-2.44-1.52-.18-2.15-.28-2.63-.94s-.06-1.34.72-1.91c1.81-1.32,1.68-2.89,3.67-4.34S309,93.67,313.74,100.18Zm-32.05,16.66c-1.2.88-.89,2.69-.06,3.84,3.25,4.45,9.32.11,9.32.11C288.27,119.15,282.9,116,281.69,116.84Z" transform="translate(-18.25 -5)"/><path class="cls-5" d="M325.52,118.36c1.4,2.63,3.21,8.76-.28,10.61s-9.48,3.76-14.22,6.27-4.41,3.78-4,4.63c1.33,2.51,10.72,2.08,13.38,1.68s3.65-.58,3.9-.12-1,1.85-1.81,2.31-1.4.4-2,.71-.78.59-1.18.8a14.5,14.5,0,0,1-6.11,1.21c-3.73.12-9-.12-12.46-6.64s-.16-12.4,6.69-16,11-4.46,12.81-5.44a17.61,17.61,0,0,0,2.33-1.49C323.8,116.23,324.79,117,325.52,118.36Z" transform="translate(-18.25 -5)"/><path class="cls-5" d="M336.33,140.47a5.44,5.44,0,0,1,0,3.77s.68,5-1.66,5.73-3.79.61-6.63,1.54c2.24.84,12.4,0,14.91,7.67s-.91,12.07-4,13.07-8.72.42-13,1.82c-3.4,1.11-3.9,2-3.44,3.4.74,2.26,7,3.29,8.24,2.87s2,0,2.07.34-.57,1.36-2.18,2-.59,1.06-2.58,1.71-11.26-1.33-13.93-9.48c-2.07-6.31,1-10.77,7.89-13s11.21-1.24,13.41-2a1,1,0,0,0,.64-1.39c-.21-.64-5.95-2.84-12.91-1.58a67.09,67.09,0,0,0-9.89,2.38c-1.42.47-4.47-2.62-5.26-5A8.1,8.1,0,0,1,313.25,144c4.61-1.51,16.13-3.71,18.32-4.43,1.56-.51,1.82-1.38,2.39-1.57S335.61,138.28,336.33,140.47Z" transform="translate(-18.25 -5)"/><path class="cls-5" d="M348.18,205.4c-1.56.16-3.05-3.36-3.56-3.3s-1,7.52-4,7.83S326,211.36,326,211.36c4.17,3.39,8,4.35,10.81,5.26,1.54.44,3.38.85,3.44,1.44.18,1.71-2.08,3.06-4.45,3.31-4.9.5-15.59-6.5-18.71-9.84-1.85.19-10.42-.06-14.11-3.88-4-4.23-4.75-6.85-4.93-8.56-.8-7.79,4.41-16.94,8.71-17.38,1.41-.15,3.41,1.07,4.76,3.33a140.55,140.55,0,0,1,6.93,14.13s6.32.32,6.32.25-6.21-2.81-6.6-6.59c-.66-6.46,3.8-12.61,12.25-13.48s20.93,6.69,21.46,11.88C352.57,197.83,349.74,205.24,348.18,205.4Zm-41.66-15.2c-1,.11-1.52,1.28-1.21,4.32s6.25,4.68,6.25,4.68S307.63,190.09,306.52,190.2Zm21,.47c-1.25.13-1.94.8-1.83,1.84.15,1.48,4.28,3.68,7.81,5.26a32.79,32.79,0,0,0,9.12,1.92C342.18,195.9,331.18,190.29,327.47,190.67Z" transform="translate(-18.25 -5)"/><polygon class="cls-6" points="333.58 118.39 324.59 115.34 316.99 121.01 317.11 111.52 309.36 106.04 318.42 103.22 321.24 94.16 326.72 101.91 336.21 101.79 330.54 109.39 333.58 118.39"/></svg>